<?xml version="1.0" encoding="utf-8"?>
<!-- Generator: Adobe Illustrator 18.0.0, SVG Export Plug-In . SVG Version: 6.00 Build 0)  -->
<!DOCTYPE svg PUBLIC "-//W3C//DTD SVG 1.1//EN" "http://www.w3.org/Graphics/SVG/1.1/DTD/svg11.dtd">
<svg version="1.1" id="Ebene_1" xmlns="http://www.w3.org/2000/svg" xmlns:xlink="http://www.w3.org/1999/xlink" x="0px" y="0px"
	 width="204.2px" height="77.3px" viewBox="0 0 204.2 77.3" enable-background="new 0 0 204.2 77.3" xml:space="preserve">
<g>
	<g>
		<rect x="0" y="1.8" fill="#0061A1" width="16.7" height="16.7"/>
		<rect x="0.1" y="32.2" fill="#0061A1" width="16.7" height="16.7"/>
		
			<rect x="30.5" y="1.6" transform="matrix(0.9771 -0.2129 0.2129 0.9771 -1.2276 8.4922)" fill="#9C9E9F" width="16.7" height="16.7"/>
		<rect x="30.6" y="32" fill="#0061A1" width="16.7" height="16.7"/>
	</g>
	<g>
		<path d="M61.2,40.2v-8h1.7v8H61.2z"/>
		<path d="M68.4,40.2v-3.5c0-0.8-0.4-1.1-1.1-1.1c-0.6,0-1.1,0.3-1.3,0.7v3.9h-1.5v-5.8H66v0.7c0.4-0.4,1.1-0.9,2-0.9
			c1.3,0,1.9,0.7,1.9,1.8v4.1H68.4z"/>
		<path d="M71.7,38.7v-3h-1v-1.3h1v-1.6h1.5v1.6h1.2v1.3h-1.2v2.6c0,0.4,0.2,0.6,0.5,0.6c0.2,0,0.4-0.1,0.5-0.2l0.3,1.2
			c-0.2,0.2-0.6,0.4-1.3,0.4C72.3,40.3,71.7,39.7,71.7,38.7z"/>
		<path d="M75,37.2c0-1.7,1.2-3,3-3c1.7,0,2.9,1.3,2.9,3.2v0.4h-4.3c0.1,0.7,0.7,1.3,1.7,1.3c0.5,0,1.2-0.2,1.5-0.6l0.7,1
			c-0.6,0.5-1.5,0.8-2.4,0.8C76.3,40.3,75,39.1,75,37.2z M78,35.5c-0.9,0-1.4,0.7-1.4,1.2h2.9C79.4,36.1,79,35.5,78,35.5z"/>
		<path d="M82,40.2v-5.8h1.5v0.8c0.4-0.5,1.1-0.9,1.8-0.9v1.5c-0.1,0-0.2,0-0.4,0c-0.5,0-1.2,0.3-1.4,0.7v3.8H82z"/>
		<path d="M85.9,39.4l0.7-1.1c0.4,0.4,1.3,0.8,2,0.8c0.7,0,1-0.3,1-0.6c0-0.9-3.4-0.2-3.4-2.4c0-1,0.8-1.8,2.4-1.8
			c1,0,1.8,0.3,2.3,0.8l-0.6,1.1c-0.3-0.4-1-0.7-1.7-0.7c-0.6,0-0.9,0.2-0.9,0.6c0,0.9,3.4,0.1,3.4,2.5c0,1.1-0.9,1.8-2.5,1.8
			C87.4,40.3,86.5,40,85.9,39.4z"/>
		<path d="M92.5,38.7v-3h-1v-1.3h1v-1.6H94v1.6h1.2v1.3H94v2.6c0,0.4,0.2,0.6,0.5,0.6c0.2,0,0.4-0.1,0.5-0.2l0.3,1.2
			c-0.2,0.2-0.6,0.4-1.3,0.4C93,40.3,92.5,39.7,92.5,38.7z"/>
		<path d="M99.7,40.2v-0.6c-0.4,0.5-1.1,0.8-1.8,0.8c-0.9,0-2-0.6-2-1.9c0-1.4,1.1-1.9,2-1.9c0.8,0,1.5,0.3,1.8,0.7v-0.7
			c0-0.6-0.5-1-1.3-1c-0.6,0-1.2,0.2-1.7,0.7l-0.6-1.1c0.7-0.6,1.6-0.9,2.5-0.9c1.3,0,2.5,0.5,2.5,2.2v3.7H99.7z M99.7,38.8V38
			c-0.3-0.3-0.7-0.5-1.2-0.5c-0.6,0-1.1,0.3-1.1,0.9s0.5,0.9,1.1,0.9C99,39.3,99.4,39.1,99.7,38.8z"/>
		<path d="M106.1,40.2v-0.6c-0.4,0.5-1.1,0.8-1.8,0.8c-0.9,0-2-0.6-2-1.9c0-1.4,1.1-1.9,2-1.9c0.8,0,1.5,0.3,1.8,0.7v-0.7
			c0-0.6-0.5-1-1.3-1c-0.6,0-1.2,0.2-1.7,0.7l-0.6-1.1c0.7-0.6,1.6-0.9,2.5-0.9c1.3,0,2.5,0.5,2.5,2.2v3.7H106.1z M106.1,38.8V38
			c-0.3-0.3-0.7-0.5-1.2-0.5c-0.6,0-1.1,0.3-1.1,0.9s0.5,0.9,1.1,0.9C105.4,39.3,105.9,39.1,106.1,38.8z"/>
		<path d="M109.4,38.7v-3h-1v-1.3h1v-1.6h1.5v1.6h1.2v1.3H111v2.6c0,0.4,0.2,0.6,0.5,0.6c0.2,0,0.4-0.1,0.5-0.2l0.3,1.2
			c-0.2,0.2-0.6,0.4-1.3,0.4C110,40.3,109.4,39.7,109.4,38.7z"/>
		<path d="M113.2,40.2v-8h1.5v8H113.2z"/>
		<path d="M116.1,32.8c0-0.5,0.4-0.9,0.9-0.9c0.5,0,0.9,0.4,0.9,0.9c0,0.5-0.4,0.9-0.9,0.9C116.5,33.7,116.1,33.3,116.1,32.8z
			 M116.2,40.2v-5.8h1.5v5.8H116.2z"/>
		<path d="M118.8,37.2c0-1.8,1.3-3,3.1-3c1.2,0,1.9,0.5,2.3,1l-1,0.9c-0.3-0.4-0.7-0.6-1.2-0.6c-0.9,0-1.6,0.7-1.6,1.7
			s0.6,1.7,1.6,1.7c0.5,0,0.9-0.2,1.2-0.6l1,0.9c-0.4,0.5-1.1,1.1-2.3,1.1C120.1,40.3,118.8,39,118.8,37.2z"/>
		<path d="M129,40.2v-3.5c0-0.8-0.4-1.1-1.1-1.1c-0.6,0-1.1,0.3-1.3,0.7v3.9h-1.5v-8h1.5v3c0.4-0.4,1.1-0.9,2-0.9
			c1.3,0,1.9,0.7,1.9,1.8v4.1H129z"/>
		<path d="M131.6,37.2c0-1.7,1.2-3,3-3c1.7,0,2.9,1.3,2.9,3.2v0.4h-4.3c0.1,0.7,0.7,1.3,1.7,1.3c0.5,0,1.2-0.2,1.5-0.6l0.7,1
			c-0.6,0.5-1.5,0.8-2.4,0.8C132.9,40.3,131.6,39.1,131.6,37.2z M134.6,35.5c-0.9,0-1.4,0.7-1.4,1.2h2.9
			C136,36.1,135.6,35.5,134.6,35.5z"/>
		<path d="M147.2,40.2v-3.4h-3.8v3.4h-1.7v-8h1.7v3.1h3.8v-3.1h1.7v8H147.2z"/>
		<path d="M150.2,37.2c0-1.6,1.2-3,3.1-3c1.9,0,3.1,1.4,3.1,3s-1.2,3-3.1,3C151.3,40.3,150.2,38.9,150.2,37.2z M154.7,37.2
			c0-0.9-0.5-1.7-1.5-1.7c-0.9,0-1.5,0.8-1.5,1.7c0,0.9,0.5,1.7,1.5,1.7C154.2,38.9,154.7,38.2,154.7,37.2z"/>
		<path d="M157.1,37.2c0-1.8,1.3-3,3.1-3c1.2,0,1.9,0.5,2.3,1l-1,0.9c-0.3-0.4-0.7-0.6-1.2-0.6c-0.9,0-1.6,0.7-1.6,1.7
			s0.6,1.7,1.6,1.7c0.5,0,0.9-0.2,1.2-0.6l1,0.9c-0.4,0.5-1.1,1.1-2.3,1.1C158.4,40.3,157.1,39,157.1,37.2z"/>
		<path d="M167.3,40.2v-3.5c0-0.8-0.4-1.1-1.1-1.1c-0.6,0-1.1,0.3-1.3,0.7v3.9h-1.5v-8h1.5v3c0.4-0.4,1.1-0.9,2-0.9
			c1.3,0,1.9,0.7,1.9,1.8v4.1H167.3z"/>
		<path d="M169.8,39.4l0.7-1.1c0.4,0.4,1.3,0.8,2,0.8c0.7,0,1-0.3,1-0.6c0-0.9-3.4-0.2-3.4-2.4c0-1,0.8-1.8,2.4-1.8
			c1,0,1.8,0.3,2.3,0.8l-0.6,1.1c-0.3-0.4-1-0.7-1.7-0.7c-0.6,0-0.9,0.2-0.9,0.6c0,0.9,3.4,0.1,3.4,2.5c0,1.1-0.9,1.8-2.5,1.8
			C171.4,40.3,170.4,40,169.8,39.4z"/>
		<path d="M175.6,37.2c0-1.8,1.3-3,3.1-3c1.2,0,1.9,0.5,2.3,1l-1,0.9c-0.3-0.4-0.7-0.6-1.2-0.6c-0.9,0-1.6,0.7-1.6,1.7
			s0.6,1.7,1.6,1.7c0.5,0,0.9-0.2,1.2-0.6l1,0.9c-0.4,0.5-1.1,1.1-2.3,1.1C176.9,40.3,175.6,39,175.6,37.2z"/>
		<path d="M185.8,40.2v-3.5c0-0.8-0.4-1.1-1.1-1.1c-0.6,0-1.1,0.3-1.3,0.7v3.9h-1.5v-8h1.5v3c0.4-0.4,1.1-0.9,2-0.9
			c1.3,0,1.9,0.7,1.9,1.8v4.1H185.8z"/>
		<path d="M192.7,40.2v-0.7c-0.4,0.4-1.1,0.9-2,0.9c-1.3,0-1.9-0.7-1.9-1.8v-4.1h1.5v3.5c0,0.8,0.4,1.1,1.1,1.1
			c0.6,0,1.1-0.3,1.3-0.7v-3.9h1.5v5.8H192.7z"/>
		<path d="M195.6,40.2v-8h1.5v8H195.6z"/>
		<path d="M198.3,37.2c0-1.7,1.2-3,3-3c1.7,0,2.9,1.3,2.9,3.2v0.4h-4.3c0.1,0.7,0.7,1.3,1.7,1.3c0.5,0,1.2-0.2,1.5-0.6l0.7,1
			c-0.6,0.5-1.5,0.8-2.4,0.8C199.6,40.3,198.3,39.1,198.3,37.2z M201.3,35.5c-0.9,0-1.4,0.7-1.4,1.2h2.9
			C202.7,36.1,202.3,35.5,201.3,35.5z"/>
		<path d="M61.5,54.6v-4.5h-1v-1.3h1v-0.2c0-1.3,0.8-2.1,1.9-2.1c0.6,0,1.2,0.2,1.5,0.6l-0.6,0.9c-0.2-0.1-0.4-0.2-0.6-0.2
			c-0.4,0-0.7,0.3-0.7,0.8v0.2h1.2v1.3h-1.2v4.5H61.5z"/>
		<path d="M69,54.6v-0.7c-0.4,0.4-1.1,0.9-2,0.9c-1.3,0-1.9-0.7-1.9-1.8v-4.1h1.5v3.5c0,0.8,0.4,1.1,1.1,1.1c0.6,0,1.1-0.3,1.3-0.7
			v-3.9h1.5v5.8H69z M66.6,48c-0.5,0-0.8-0.4-0.8-0.8c0-0.5,0.4-0.8,0.8-0.8s0.8,0.4,0.8,0.8C67.4,47.7,67,48,66.6,48z M69.1,48
			c-0.4,0-0.8-0.4-0.8-0.8c0-0.5,0.4-0.8,0.8-0.8c0.5,0,0.8,0.4,0.8,0.8C69.9,47.7,69.6,48,69.1,48z"/>
		<path d="M72,54.6v-5.8h1.5v0.8c0.4-0.5,1.1-0.9,1.8-0.9v1.5c-0.1,0-0.2,0-0.4,0c-0.5,0-1.2,0.3-1.4,0.7v3.8H72z"/>
		<path d="M81.3,54.6V48h-2.3v-1.5h6.4V48H83v6.5H81.3z"/>
		<path d="M85,51.6c0-1.7,1.2-3,3-3c1.7,0,2.9,1.3,2.9,3.2v0.4h-4.3c0.1,0.7,0.7,1.3,1.7,1.3c0.5,0,1.2-0.2,1.5-0.6l0.7,1
			c-0.6,0.5-1.5,0.8-2.4,0.8C86.4,54.7,85,53.5,85,51.6z M88,49.9c-0.9,0-1.4,0.7-1.4,1.2h2.9C89.4,50.5,89.1,49.9,88,49.9z"/>
		<path d="M91.7,51.6c0-1.8,1.3-3,3.1-3c1.2,0,1.9,0.5,2.3,1l-1,0.9c-0.3-0.4-0.7-0.6-1.2-0.6c-0.9,0-1.6,0.7-1.6,1.7
			s0.6,1.7,1.6,1.7c0.5,0,0.9-0.2,1.2-0.6l1,0.9c-0.4,0.5-1.1,1.1-2.3,1.1C93,54.7,91.7,53.4,91.7,51.6z"/>
		<path d="M101.9,54.6V51c0-0.8-0.4-1.1-1.1-1.1c-0.6,0-1.1,0.3-1.3,0.7v3.9H98v-8h1.5v3c0.4-0.4,1.1-0.9,2-0.9
			c1.3,0,1.9,0.7,1.9,1.8v4.1H101.9z"/>
		<path d="M108.8,54.6V51c0-0.8-0.4-1.1-1.1-1.1c-0.6,0-1.1,0.3-1.3,0.7v3.9h-1.5v-5.8h1.5v0.7c0.4-0.4,1.1-0.9,2-0.9
			c1.3,0,1.9,0.7,1.9,1.8v4.1H108.8z"/>
		<path d="M111.6,47.2c0-0.5,0.4-0.9,0.9-0.9c0.5,0,0.9,0.4,0.9,0.9c0,0.5-0.4,0.9-0.9,0.9C112,48.1,111.6,47.7,111.6,47.2z
			 M111.8,54.6v-5.8h1.5v5.8H111.8z"/>
		<path d="M118.5,54.6l-1.5-2.2l-0.7,0.7v1.5h-1.5v-8h1.5v4.8l2.2-2.6h1.9l-2.3,2.6l2.4,3.2H118.5z"/>
		<path d="M124.3,54.6v-8h4.2c1.5,0,2.3,1,2.3,2c0,1-0.6,1.7-1.4,1.8c0.9,0.1,1.5,1,1.5,2c0,1.2-0.8,2.2-2.3,2.2H124.3z M129.1,48.9
			c0-0.5-0.4-0.8-0.9-0.8H126v1.7h2.1C128.7,49.7,129.1,49.4,129.1,48.9z M129.2,52.1c0-0.5-0.4-0.9-1-0.9H126v1.8h2.2
			C128.8,53.1,129.2,52.7,129.2,52.1z"/>
		<path d="M136.1,54.6v-0.7c-0.4,0.4-1.1,0.9-2,0.9c-1.3,0-1.9-0.7-1.9-1.8v-4.1h1.5v3.5c0,0.8,0.4,1.1,1.1,1.1
			c0.6,0,1.1-0.3,1.3-0.7v-3.9h1.5v5.8H136.1z"/>
		<path d="M138.8,51.6c0-1.8,1.3-3,3.1-3c1.2,0,1.9,0.5,2.3,1l-1,0.9c-0.3-0.4-0.7-0.6-1.2-0.6c-0.9,0-1.6,0.7-1.6,1.7
			s0.6,1.7,1.6,1.7c0.5,0,0.9-0.2,1.2-0.6l1,0.9c-0.4,0.5-1.1,1.1-2.3,1.1C140.1,54.7,138.8,53.4,138.8,51.6z"/>
		<path d="M149,54.6V51c0-0.8-0.4-1.1-1.1-1.1c-0.6,0-1.1,0.3-1.3,0.7v3.9h-1.5v-8h1.5v3c0.4-0.4,1.1-0.9,2-0.9
			c1.3,0,1.9,0.7,1.9,1.8v4.1H149z"/>
		<path d="M151.5,53.8l0.7-1.1c0.4,0.4,1.3,0.8,2,0.8c0.7,0,1-0.3,1-0.6c0-0.9-3.4-0.2-3.4-2.4c0-1,0.8-1.8,2.4-1.8
			c1,0,1.8,0.3,2.3,0.8l-0.6,1.1c-0.3-0.4-1-0.7-1.7-0.7c-0.6,0-0.9,0.2-0.9,0.6c0,0.9,3.4,0.1,3.4,2.5c0,1.1-0.9,1.8-2.5,1.8
			C153.1,54.7,152.1,54.4,151.5,53.8z"/>
	</g>
	<g>
		<path d="M72.4,18.5l-7.1-9.7v9.7H61V1.6h4.5l6.8,9.3V1.6h4.4v16.8H72.4z"/>
		<path d="M83.4,18.5v-13h-4.7V1.6h13.7v3.8h-4.7v13H83.4z"/>
		<path d="M94.5,18.5V1.6h9.5c3.4,0,4.9,2.2,4.9,4.3c0,2.1-1.3,3.5-2.9,3.9c1.8,0.3,3.2,2,3.2,4.1c0,2.4-1.6,4.6-4.9,4.6H94.5z
			 M104.5,6.7c0-0.8-0.6-1.3-1.5-1.3h-4.2v2.6h4.2C103.9,8.1,104.5,7.6,104.5,6.7z M104.8,13.2c0-0.8-0.6-1.4-1.7-1.4h-4.4v2.9h4.4
			C104.2,14.7,104.8,14.2,104.8,13.2z"/>
	</g>
	<g>
		<path d="M61.2,77.2v-6.4h4.2v0.7H62v2.1h3.3v0.7H62v2.9H61.2z"/>
		<path d="M71.1,77.2v-3h-3.8v3h-0.8v-6.4h0.8v2.8h3.8v-2.8h0.8v6.4H71.1z"/>
		<path d="M73.3,74c0-1.9,1.3-3.3,3.2-3.3c1.9,0,3.2,1.4,3.2,3.3c0,1.9-1.3,3.3-3.2,3.3C74.6,77.3,73.3,75.9,73.3,74z M78.9,74
			c0-1.5-0.9-2.6-2.4-2.6c-1.4,0-2.4,1.1-2.4,2.6c0,1.5,0.9,2.6,2.4,2.6C77.9,76.6,78.9,75.5,78.9,74z"/>
		<path d="M83.4,77.2v-6.4h4.2v0.7h-3.4v2.1h3.3v0.7h-3.3v2.9H83.4z"/>
		<path d="M91.6,77.2v-0.5c-0.4,0.4-0.9,0.6-1.5,0.6c-0.8,0-1.6-0.5-1.6-1.5c0-1.1,0.8-1.5,1.6-1.5c0.6,0,1.2,0.2,1.5,0.6V74
			c0-0.6-0.5-1-1.2-1c-0.6,0-1,0.2-1.4,0.6l-0.3-0.5c0.5-0.5,1.1-0.8,1.9-0.8c1,0,1.8,0.4,1.8,1.6v3.2H91.6z M91.6,76.2v-0.9
			c-0.3-0.4-0.8-0.6-1.3-0.6c-0.7,0-1.2,0.4-1.2,1c0,0.6,0.5,1,1.2,1C90.8,76.8,91.3,76.6,91.6,76.2z"/>
		<path d="M93.6,74.9c0-1.4,0.9-2.4,2.3-2.4c0.8,0,1.4,0.3,1.7,0.8l-0.5,0.4c-0.3-0.4-0.7-0.6-1.2-0.6c-1,0-1.6,0.8-1.6,1.8
			c0,1,0.6,1.8,1.6,1.8c0.5,0,0.9-0.2,1.2-0.6l0.5,0.4c-0.4,0.5-0.9,0.8-1.7,0.8C94.5,77.3,93.6,76.2,93.6,74.9z"/>
		<path d="M101.9,77.2v-3.1c0-0.8-0.4-1.1-1.1-1.1c-0.6,0-1.1,0.3-1.4,0.7v3.4h-0.7v-6.4h0.7v2.4c0.3-0.4,1-0.8,1.7-0.8
			c1,0,1.5,0.5,1.5,1.5v3.3H101.9z"/>
		<path d="M107.3,77.2v-3.1c0-0.8-0.4-1.1-1.1-1.1c-0.6,0-1.1,0.3-1.4,0.7v3.4h-0.7v-6.4h0.7v2.4c0.3-0.4,1-0.8,1.7-0.8
			c1,0,1.5,0.5,1.5,1.5v3.3H107.3z"/>
		<path d="M109.2,74.9c0-1.4,0.9-2.4,2.3-2.4s2.3,1.1,2.3,2.4c0,1.3-0.9,2.4-2.3,2.4S109.2,76.2,109.2,74.9z M113.1,74.9
			c0-0.9-0.5-1.8-1.5-1.8c-1,0-1.5,0.8-1.5,1.8c0,1,0.5,1.8,1.5,1.8C112.5,76.7,113.1,75.8,113.1,74.9z"/>
		<path d="M114.8,74.9c0-1.4,0.9-2.4,2.3-2.4c0.8,0,1.3,0.3,1.7,0.8l-0.5,0.4c-0.3-0.4-0.7-0.6-1.2-0.6c-1,0-1.6,0.8-1.6,1.8
			c0,1,0.6,1.8,1.6,1.8c0.5,0,0.9-0.2,1.2-0.6l0.5,0.4c-0.4,0.5-0.9,0.8-1.7,0.8C115.8,77.3,114.8,76.2,114.8,74.9z"/>
		<path d="M123.1,77.2v-3.1c0-0.8-0.4-1.1-1.1-1.1c-0.6,0-1.1,0.3-1.4,0.7v3.4H120v-6.4h0.7v2.4c0.3-0.4,1-0.8,1.7-0.8
			c1,0,1.5,0.5,1.5,1.5v3.3H123.1z"/>
		<path d="M125,76.6l0.4-0.5c0.3,0.4,0.9,0.7,1.5,0.7c0.7,0,1.1-0.3,1.1-0.8c0-1.1-2.9-0.4-2.9-2.2c0-0.7,0.6-1.3,1.7-1.3
			c0.8,0,1.4,0.3,1.7,0.7l-0.3,0.5c-0.3-0.3-0.8-0.6-1.4-0.6c-0.6,0-1,0.3-1,0.7c0,1,2.9,0.3,2.9,2.2c0,0.8-0.6,1.4-1.8,1.4
			C126.1,77.3,125.4,77.1,125,76.6z"/>
		<path d="M129.6,74.9c0-1.4,0.9-2.4,2.3-2.4c0.8,0,1.3,0.3,1.7,0.8l-0.5,0.4c-0.3-0.4-0.7-0.6-1.2-0.6c-1,0-1.6,0.8-1.6,1.8
			c0,1,0.6,1.8,1.6,1.8c0.5,0,0.9-0.2,1.2-0.6l0.5,0.4c-0.4,0.5-0.9,0.8-1.7,0.8C130.6,77.3,129.6,76.2,129.6,74.9z"/>
		<path d="M137.9,77.2v-3.1c0-0.8-0.4-1.1-1.1-1.1c-0.6,0-1.1,0.3-1.4,0.7v3.4h-0.7v-6.4h0.7v2.4c0.3-0.4,1-0.8,1.7-0.8
			c1,0,1.5,0.5,1.5,1.5v3.3H137.9z"/>
		<path d="M143.3,77.2v-0.7c-0.4,0.4-1,0.8-1.7,0.8c-1,0-1.5-0.5-1.5-1.5v-3.3h0.7v3.1c0,0.8,0.4,1.1,1.1,1.1c0.6,0,1.1-0.3,1.4-0.7
			v-3.4h0.7v4.7H143.3z"/>
		<path d="M145.5,77.2v-6.4h0.7v6.4H145.5z"/>
		<path d="M147.5,74.9c0-1.4,1-2.4,2.3-2.4c1.4,0,2.2,1.1,2.2,2.5v0.2h-3.8c0.1,0.9,0.7,1.6,1.7,1.6c0.5,0,1.1-0.2,1.4-0.6l0.3,0.5
			c-0.5,0.5-1.1,0.7-1.9,0.7C148.5,77.3,147.5,76.3,147.5,74.9z M149.8,73c-1,0-1.5,0.8-1.5,1.5h3.1C151.3,73.9,150.9,73,149.8,73z"
			/>
		<path d="M155.5,74c0-1.9,1.3-3.3,3.2-3.3c1.9,0,3.2,1.4,3.2,3.3c0,1.9-1.3,3.3-3.2,3.3C156.8,77.3,155.5,75.9,155.5,74z M161.1,74
			c0-1.5-0.9-2.6-2.4-2.6c-1.4,0-2.4,1.1-2.4,2.6c0,1.5,0.9,2.6,2.4,2.6C160.1,76.6,161.1,75.5,161.1,74z"/>
		<path d="M162.8,76.6l0.4-0.5c0.3,0.4,0.9,0.7,1.5,0.7c0.7,0,1.1-0.3,1.1-0.8c0-1.1-2.9-0.4-2.9-2.2c0-0.7,0.6-1.3,1.7-1.3
			c0.8,0,1.4,0.3,1.7,0.7l-0.3,0.5c-0.3-0.3-0.8-0.6-1.4-0.6c-0.6,0-1,0.3-1,0.7c0,1,2.9,0.3,2.9,2.2c0,0.8-0.6,1.4-1.8,1.4
			C163.9,77.3,163.3,77.1,162.8,76.6z"/>
		<path d="M168.1,76.2v-3h-0.8v-0.6h0.8v-1.3h0.7v1.3h0.9v0.6h-0.9v2.9c0,0.3,0.2,0.6,0.5,0.6c0.2,0,0.4-0.1,0.5-0.2L170,77
			c-0.2,0.2-0.4,0.3-0.9,0.3C168.4,77.3,168.1,76.9,168.1,76.2z"/>
		<path d="M170.6,76.6l0.4-0.5c0.3,0.4,0.9,0.7,1.5,0.7c0.7,0,1.1-0.3,1.1-0.8c0-1.1-2.9-0.4-2.9-2.2c0-0.7,0.6-1.3,1.7-1.3
			c0.8,0,1.4,0.3,1.7,0.7l-0.3,0.5c-0.3-0.3-0.8-0.6-1.4-0.6c-0.6,0-1,0.3-1,0.7c0,1,2.9,0.3,2.9,2.2c0,0.8-0.6,1.4-1.8,1.4
			C171.7,77.3,171.1,77.1,170.6,76.6z"/>
		<path d="M175.3,74.9c0-1.4,0.9-2.4,2.3-2.4c0.8,0,1.3,0.3,1.7,0.8l-0.5,0.4c-0.3-0.4-0.7-0.6-1.2-0.6c-1,0-1.6,0.8-1.6,1.8
			c0,1,0.6,1.8,1.6,1.8c0.5,0,0.9-0.2,1.2-0.6l0.5,0.4c-0.4,0.5-0.9,0.8-1.7,0.8C176.2,77.3,175.3,76.2,175.3,74.9z"/>
		<path d="M183.6,77.2v-3.1c0-0.8-0.4-1.1-1.1-1.1c-0.6,0-1.1,0.3-1.4,0.7v3.4h-0.7v-6.4h0.7v2.4c0.3-0.4,1-0.8,1.7-0.8
			c1,0,1.5,0.5,1.5,1.5v3.3H183.6z"/>
		<path d="M189.8,77.2l-1.2-3.7l-1.2,3.7h-0.7l-1.5-4.7h0.8l1.1,3.7l1.2-3.7h0.6l1.2,3.7l1.1-3.7h0.8l-1.5,4.7H189.8z"/>
		<path d="M192.6,74.9c0-1.4,1-2.4,2.3-2.4c1.4,0,2.2,1.1,2.2,2.5v0.2h-3.8c0.1,0.9,0.7,1.6,1.7,1.6c0.5,0,1.1-0.2,1.4-0.6l0.3,0.5
			c-0.5,0.5-1.1,0.7-1.9,0.7C193.6,77.3,192.6,76.3,192.6,74.9z M194.9,73c-1,0-1.5,0.8-1.5,1.5h3.1C196.4,73.9,195.9,73,194.9,73z"
			/>
		<path d="M198.2,71.4c0-0.3,0.2-0.5,0.5-0.5c0.3,0,0.5,0.2,0.5,0.5c0,0.3-0.2,0.5-0.5,0.5C198.5,71.9,198.2,71.7,198.2,71.4z
			 M198.4,77.2v-4.7h0.7v4.7H198.4z"/>
		<path d="M200.3,77.2v-0.6l2.6-3.5h-2.6v-0.6h3.5v0.5l-2.6,3.5h2.6v0.6H200.3z"/>
	</g>
</g>
</svg>
